<svg width="1200" height="900" viewBox="0 0 1200 900" fill="none" xmlns="http://www.w3.org/2000/svg">
  <rect width="1200" height="900" rx="64" fill="#F7F1E8"/>
  <rect x="60" y="60" width="1080" height="780" rx="40" fill="url(#paint0_linear)"/>
  <rect x="130" y="150" width="430" height="220" rx="38" fill="#FEFCFA" stroke="#D8CCC0" stroke-width="2"/>
  <path d="M242 368L220 456L334 386" fill="#FEFCFA" stroke="#D8CCC0" stroke-width="2" stroke-linejoin="round"/>
  <rect x="190" y="214" width="226" height="24" rx="12" fill="#DDD2C7"/>
  <rect x="190" y="258" width="294" height="18" rx="9" fill="#EEE6DC"/>
  <rect x="190" y="294" width="248" height="18" rx="9" fill="#EEE6DC"/>
  <rect x="644" y="280" width="426" height="220" rx="38" fill="#1E1814"/>
  <path d="M956 498L980 582L862 520" fill="#1E1814"/>
  <rect x="716" y="344" width="156" height="24" rx="12" fill="#8B8177"/>
  <rect x="716" y="388" width="246" height="18" rx="9" fill="#F2E9DE"/>
  <rect x="716" y="424" width="218" height="18" rx="9" fill="#C8BCAF"/>
  <circle cx="598" cy="642" r="92" fill="#EFE6DB"/>
  <path d="M600 586C565 586 540 610 540 646C540 677 561 700 600 730C639 700 660 677 660 646C660 610 635 586 600 586Z" stroke="#1E1814" stroke-width="18" stroke-linejoin="round"/>
  <rect x="384" y="766" width="432" height="18" rx="9" fill="#DCCFC4"/>
  <defs>
    <linearGradient id="paint0_linear" x1="600" y1="108" x2="600" y2="840" gradientUnits="userSpaceOnUse">
      <stop stop-color="#FFFDFC"/>
      <stop offset="1" stop-color="#F2E9DE"/>
    </linearGradient>
  </defs>
</svg>
